<?xml version="1.0" encoding="utf-8"?>
<!-- Generator: Adobe Illustrator 22.1.0, SVG Export Plug-In . SVG Version: 6.00 Build 0)  -->
<svg version="1.1" id="Logo" xmlns="http://www.w3.org/2000/svg" xmlns:xlink="http://www.w3.org/1999/xlink" x="0px" y="0px"
	 viewBox="0 0 48.3 68.1" style="enable-background:new 0 0 48.3 68.1;" xml:space="preserve">
<style type="text/css">
	.st0{fill:#3504BC;}
</style>
<title>Bounteous_IndigoJo</title>
<path class="st0" d="M1,44V1h15.1v21.3l0,0c12-4.4,25.3,1.7,29.7,13.7s-1.7,25.3-13.7,29.7C20.1,70.1,6.8,64,2.4,52
	C1.5,49.4,1,46.7,1,44 M24.1,36.2c-4.3,0-7.8,3.5-7.8,7.8c0,4.3,3.5,7.8,7.8,7.8c4.3,0,7.8-3.5,7.8-7.8c0,0,0,0,0,0
	C31.9,39.7,28.4,36.2,24.1,36.2z"/>
</svg>
